<?xml version="1.0" standalone="no"?>
<!DOCTYPE svg PUBLIC "-//W3C//DTD SVG 20010904//EN"
 "http://www.w3.org/TR/2001/REC-SVG-20010904/DTD/svg10.dtd">
<svg version="1.0" xmlns="http://www.w3.org/2000/svg"
 width="512.000000pt" height="512.000000pt" viewBox="0 0 512.000000 512.000000"
 preserveAspectRatio="xMidYMid meet">

<g transform="translate(0.000000,512.000000) scale(0.100000,-0.100000)"
fill="#000000" stroke="none">
<path d="M2395 5109 c-274 -40 -531 -171 -715 -365 l-65 -69 -240 -6 c-195 -5
-255 -11 -321 -27 -360 -92 -633 -282 -834 -581 -106 -159 -210 -450 -210
-592 0 -39 32 -69 73 -69 49 0 68 27 84 121 44 255 153 462 342 650 242 240
508 349 853 349 l144 0 -35 -72 c-20 -40 -46 -96 -57 -124 l-21 -51 -109 -6
c-440 -23 -810 -367 -874 -813 -8 -56 -10 -403 -8 -1179 l3 -1100 22 -47 c30
-66 105 -143 172 -175 l56 -28 367 -3 367 -3 5 -32 c14 -84 26 -178 26 -196 0
-21 -3 -21 -364 -21 -204 0 -387 4 -417 10 -237 45 -425 228 -475 460 -11 53
-14 253 -14 1060 -1 1068 2 1018 -51 1039 -34 12 -86 -10 -94 -41 -3 -13 -4
-484 -3 -1048 l3 -1025 23 -70 c85 -252 257 -424 507 -506 67 -22 87 -23 490
-29 l419 -5 32 -230 c17 -126 34 -238 39 -248 4 -10 16 -22 26 -27 24 -14
2014 -14 2038 0 10 5 22 17 26 27 5 10 22 122 39 248 l32 230 419 5 c403 6
423 7 490 29 253 83 428 260 507 511 l23 75 0 1175 c0 1312 4 1237 -71 1452
-43 124 -80 198 -150 304 -167 253 -427 450 -714 542 -153 49 -251 62 -469 62
l-194 0 -91 88 c-122 118 -213 182 -258 182 -44 0 -68 -26 -68 -73 0 -32 6
-41 43 -68 23 -17 41 -35 40 -40 -2 -5 -19 -29 -38 -55 -96 -126 -181 -308
-224 -479 l-28 -110 -57 -3 -56 -3 0 420 0 419 53 -14 c72 -19 90 -18 115 9
27 29 29 78 3 101 -62 56 -369 92 -556 65z m235 -618 c0 -456 1 -480 19 -502
19 -23 23 -24 180 -24 197 0 197 0 217 128 26 164 99 346 191 483 60 88 68 93
102 60 57 -54 57 -64 7 -139 -83 -124 -151 -294 -170 -428 -6 -41 -4 -51 18
-75 l24 -29 206 -3 206 -3 0 -65 0 -64 -204 0 c-186 0 -206 -2 -227 -19 -20
-16 -24 -27 -22 -68 5 -109 82 -314 168 -442 25 -38 45 -73 45 -78 0 -5 -20
-28 -44 -52 l-44 -43 -45 64 c-117 164 -186 342 -222 570 -10 62 -28 68 -204
68 -145 0 -156 -1 -178 -22 l-23 -21 0 -479 0 -478 -70 0 -70 0 0 477 c0 476
0 477 -22 500 -21 22 -27 23 -178 23 -178 0 -195 -6 -205 -68 -36 -228 -105
-406 -222 -570 l-45 -64 -44 43 c-24 24 -44 47 -44 52 0 5 20 40 45 78 86 128
163 333 168 442 2 41 -2 52 -22 68 -21 17 -41 19 -227 19 l-204 0 0 65 0 65
189 0 c104 0 201 4 215 10 14 5 32 20 41 34 16 24 16 31 0 108 -28 140 -103
312 -181 415 -13 17 -24 35 -24 40 0 4 17 28 39 53 45 53 49 51 114 -44 92
-137 165 -319 191 -483 20 -128 20 -128 217 -128 157 0 161 1 180 24 18 22 19
46 19 502 l0 479 70 0 70 0 0 -479z m-290 39 l0 -421 -56 3 -57 3 -28 110
c-43 175 -125 348 -228 485 l-41 55 22 17 c43 34 243 127 313 147 39 11 71 20
73 20 1 1 2 -188 2 -419z m1723 -43 c440 -117 768 -454 880 -907 21 -84 21
-105 24 -1227 4 -1256 6 -1218 -57 -1345 -85 -170 -230 -286 -410 -324 -48
-10 -158 -14 -432 -14 -365 0 -368 0 -368 21 0 18 12 112 26 196 l5 32 367 3
c353 3 369 4 414 25 66 30 143 105 175 172 l28 56 3 1100 c2 776 0 1123 -8
1179 -46 318 -253 597 -544 732 -110 51 -208 75 -329 81 -105 6 -109 7 -120
32 -5 14 -30 68 -54 120 -23 51 -43 96 -43 98 0 3 78 3 173 1 143 -4 188 -10
270 -31z m-2358 -167 c30 -60 75 -181 75 -202 0 -4 -61 -8 -135 -8 -78 0 -135
4 -135 9 0 26 56 184 87 246 l35 69 20 -24 c11 -14 35 -54 53 -90z m1825 34
c28 -61 80 -215 80 -235 0 -5 -57 -9 -135 -9 -74 0 -135 4 -135 8 0 21 45 142
72 197 40 80 67 117 80 109 5 -4 23 -35 38 -70z m-2175 -251 c-17 -40 -17
-307 -1 -399 47 -271 170 -501 369 -692 150 -143 326 -241 536 -299 89 -25
110 -27 301 -27 189 0 212 2 300 26 274 74 514 237 683 463 113 151 202 371
228 562 12 88 8 332 -6 366 -6 15 0 17 49 17 132 0 318 -69 445 -165 111 -85
215 -228 262 -361 49 -142 49 -133 49 -1285 0 -952 -2 -1084 -15 -1117 -21
-49 -52 -81 -100 -103 -36 -17 -71 -19 -372 -19 -183 0 -333 2 -333 4 0 12 41
300 43 301 1 2 22 11 48 22 152 67 219 247 146 395 -30 61 -74 105 -140 140
l-42 23 -1019 3 -1019 2 -24 -22 c-33 -30 -31 -80 3 -107 27 -21 30 -21 1016
-21 1091 0 1033 3 1079 -61 49 -69 25 -170 -50 -208 -40 -21 -48 -21 -1231
-21 -1183 0 -1191 0 -1231 21 -76 38 -99 139 -48 210 30 43 75 59 163 59 92 0
120 18 120 75 0 28 -6 43 -24 57 -22 18 -36 20 -125 16 -83 -3 -108 -8 -151
-30 -142 -74 -201 -248 -131 -390 32 -65 81 -112 146 -141 26 -11 47 -20 48
-22 2 -1 43 -289 43 -301 0 -2 -150 -4 -332 -4 -301 0 -337 2 -373 19 -49 22
-91 69 -105 119 -8 26 -10 371 -8 1147 3 1029 5 1114 22 1170 46 156 152 320
269 416 125 101 317 177 456 178 56 1 62 -1 56 -16z m419 -450 c-17 -74 -121
-293 -139 -293 -16 0 -98 202 -119 293 l-6 27 135 0 135 0 -6 -27z m566 -388
c0 -296 -3 -415 -11 -415 -22 0 -190 60 -241 86 -29 15 -77 42 -105 60 l-53
34 49 67 c105 144 184 315 223 485 l23 98 58 0 57 0 0 -415z m569 353 c33
-164 124 -371 224 -510 l56 -78 -42 -29 c-66 -45 -175 -96 -265 -125 -46 -14
-87 -26 -93 -26 -5 0 -9 160 -9 415 l0 415 58 0 58 0 13 -62z m695 35 c-21
-91 -103 -293 -119 -293 -17 0 -122 218 -140 293 l-7 27 136 0 136 0 -6 -27z
m-1731 -2315 c3 -18 9 -86 13 -150 l6 -118 -186 0 c-113 0 -186 4 -186 10 0
11 -28 224 -35 263 l-4 27 193 0 194 0 5 -32z m607 -118 l0 -150 -219 0 -219
0 -6 123 c-4 67 -9 134 -12 150 l-6 27 231 0 231 0 0 -150z m616 123 c-3 -16
-8 -83 -12 -150 l-6 -123 -219 0 -219 0 0 150 0 150 231 0 231 0 -6 -27z m539
0 c-7 -39 -35 -252 -35 -263 0 -6 -73 -10 -186 -10 l-186 0 6 118 c4 64 10
132 13 150 l5 32 194 0 194 0 -5 -27z m-1731 -445 c3 -13 8 -69 11 -125 l7
-103 -174 0 -174 0 -13 108 c-7 59 -15 115 -17 125 -5 16 8 17 175 17 179 0
181 0 185 -22z m576 -103 l0 -125 -205 0 -205 0 -1 38 c0 20 -4 76 -7 125 l-7
87 212 0 213 0 0 -125z m578 38 c-3 -49 -7 -105 -7 -125 l-1 -38 -205 0 -205
0 0 125 0 125 213 0 212 0 -7 -87z m518 70 c-2 -10 -10 -66 -17 -125 l-13
-108 -174 0 -174 0 7 103 c10 165 -14 147 196 147 167 0 180 -1 175 -17z
m-1642 -420 c3 -21 8 -83 11 -138 3 -55 8 -121 11 -147 l6 -48 -159 0 -159 0
-22 168 c-12 92 -22 175 -22 185 0 15 15 17 164 17 l164 0 6 -37z m546 -148
l0 -185 -184 0 -184 0 -5 43 c-4 23 -9 92 -12 152 -3 61 -8 125 -11 143 l-5
32 201 0 200 0 0 -185z m556 153 c-3 -18 -8 -82 -11 -143 -3 -60 -8 -129 -12
-152 l-5 -43 -184 0 -184 0 0 185 0 185 200 0 201 0 -5 -32z m484 15 c0 -10
-10 -93 -22 -185 l-22 -168 -159 0 -159 0 6 48 c3 26 8 92 11 147 3 55 8 117
11 138 l6 37 164 0 c149 0 164 -2 164 -17z"/>
</g>
</svg>
