<svg height="512" viewBox="0 0 512 512" width="512" xmlns="http://www.w3.org/2000/svg"><path d="m64 431.523v24.477a24.027 24.027 0 0 0 24 24 24.113 24.113 0 0 0 24-24v-11.9l2.117-1.527c.16-.116.234-.309.383-.436l51.094-38.29a23.987 23.987 0 0 0 9.377-18.041l9.029 3.608v66.586a24.027 24.027 0 0 0 24 24h32a24 24 0 0 0 0-48h-8v-62.109a23.881 23.881 0 0 0 -13.266-21.469l-29.875-14.938-19.652-9.826-1.207-12.064v-5.353l13.6 3.4a23.908 23.908 0 0 0 22.226-5.766l17.574-16.452a7.9 7.9 0 0 0 3.058-1.931l7.617-8.062a32.573 32.573 0 0 0 26.847-5.8 32.553 32.553 0 0 0 21.878-12.162l16.581 72.938a56 56 0 1 0 109.219-24.828l-5.321-23.4-7.093-31.2-26.6-117.014c-.041-.176-.165-.312-.217-.484a7.905 7.905 0 0 0 -.891-1.989 8.355 8.355 0 0 0 -1.972-2.09c-.171-.129-.277-.322-.459-.437-.1-.059-.212-.062-.309-.118-.117-.067-.2-.171-.324-.233l-52.391-26.688a216.756 216.756 0 0 1 -7.023-54.386v-3.078h24a8 8 0 0 0 0-16h-64a8 8 0 0 0 0 16h24v3.078a232.825 232.825 0 0 0 7.444 57.986l-35.632 46.623c-.089.119-.124.261-.207.383a7.653 7.653 0 0 0 -.418.772 7.853 7.853 0 0 0 -.706 1.818 7.61 7.61 0 0 0 -.178.919 7.863 7.863 0 0 0 .053 2.261c.026.162-.026.317.011.48l11.12 48.916a31.952 31.952 0 0 0 -23.948-1.7h-29.539a7.851 7.851 0 0 0 -3.482.875h-47.509a35.682 35.682 0 0 0 6.261-13.9 7.845 7.845 0 0 0 0-14.395 35.883 35.883 0 0 0 -65.954-11.406l-11.324-12.804a8 8 0 1 0 -11.984 10.6l10.976 12.4-10.593 10.433a8 8 0 1 0 11.218 11.4l7.049-6.939a35.66 35.66 0 0 0 6.333 14.611h-4.225a23.2 23.2 0 0 0 0 46.4h1.234v85.891a24.192 24.192 0 0 0 1.068 7.132 23.723 23.723 0 0 0 1.59 3.817c.095.252.2.521.233.614l11.336 28.359-45.563 31.946a23.892 23.892 0 0 0 -8.664 18.492zm168 16.477h8a8 8 0 0 1 0 16h-8zm-16 16h-8a8.005 8.005 0 0 1 -8-8v-16h16zm-4.422-101.266a7.95 7.95 0 0 1 4.422 7.157v54.109h-16v-40a8 8 0 0 0 -5.031-7.43l-22.943-9.177 16.224-16.323zm-38.416-19.208-17.367 17.374-30.764-12.306a7.924 7.924 0 0 1 -3.828-3.286c-.119-.395-.246-.807-.406-1.48-.164-.617-.344-1.234-.438-1.766a24.809 24.809 0 0 1 -.359-4.218v-17.844h32v8a8 8 0 0 0 4.422 7.156zm-53.162-39.526v-48h32v48zm72.883-11.8a7.974 7.974 0 0 1 -7.4 1.922l-17.483-4.372v-14.65l13.469 4.484a7.912 7.912 0 0 0 8.687-2.477l6.049-7.3 10.252 9.684zm-24.883-33.964v-2.963h19.478l-6.142 7.407zm222.992 52.889a40 40 0 0 1 -78 17.734l-3.547-15.6 78-17.733zm-10.157-44.678 3.062 13.468-78 17.733-3.063-13.467-.483-2.126 78-17.735zm-4.035-17.735-31.2 7.092-23.045-101.404 31.195-7.091zm-70.39-129.189 30.036 15.3-50.5 11.482zm.532 38.423 23.058 101.407-31.2 7.092-23.05-101.406zm-82.942 66.054h22.852a7.815 7.815 0 0 0 2.71-.477 16.739 16.739 0 1 1 -9.945 21.688 8.4 8.4 0 0 0 -3.89-4.289 7.946 7.946 0 0 0 -3.727-.922h-8zm-11.261 31.273a7.908 7.908 0 0 0 3.261.727h11.117a32.861 32.861 0 0 0 3.305 4.535 8.4 8.4 0 0 0 -4.4.707 8.093 8.093 0 0 0 -2.234 1.664l-5.3 5.6-11.619-11.022 2.1-2.212zm-76.739-87.523a19.927 19.927 0 0 1 17.293 10.136l-31.738-3.9a19.9 19.9 0 0 1 14.445-6.236zm18.842 26.441a19.883 19.883 0 0 1 -38.671-4.75zm-52.076 45.082a7.2 7.2 0 0 1 0-14.4h105.234v14.4zm29.828 151.274a7.986 7.986 0 0 0 2.836-9.508l-5.258-13.15 24.687 9.877h.028l2.735 1.094 1.573 5.565a8.036 8.036 0 0 1 -3.195 6.614l-44.634 33.445-8.579-13.051zm-52.594 40.976a7.822 7.822 0 0 1 2.806-6.089l6.866-4.811 7.484 11.377h-17.156zm0 16.477h16v8a7.818 7.818 0 0 1 -2.453 5.7 7.674 7.674 0 0 1 -5.547 2.3 8.005 8.005 0 0 1 -8-8z"/><path d="m277.492 102.406a219.372 219.372 0 0 1 -4.015-30.867l-15.969.922a233.911 233.911 0 0 0 4.312 33.133z"/><path d="m418.768 255.685h16.003v24.631h-16.003z" transform="matrix(.974 -.225 .225 .974 -49.285 102.687)"/><path d="m419.578 383.156a53.287 53.287 0 0 0 28.172-59.812l-3.031-13.144-15.594 3.6 3.031 13.141a37.325 37.325 0 0 1 -19.734 41.906z"/><path d="m233.125 176h16v16h-16z"/><path d="m201.125 176h14.875v16h-14.875z"/><path d="m264 312h17.125v16h-17.125z"/><path d="m216 312h33.125v16h-33.125z"/></svg>