<svg id="_x33_0" enable-background="new 0 0 62 62" height="512" viewBox="0 0 62 62" width="512" xmlns="http://www.w3.org/2000/svg"><g><path d="m24 44h4v2h-4z"/><path d="m14 44h4v2h-4z"/><path d="m44 44h4v2h-4z"/><path d="m34 44h4v2h-4z"/><path d="m26.121 32.293c.189-.189.441-.293.708-.293h1.171v-2h-1.171c-.801 0-1.555.312-2.122.879l-1.414 1.414 1.414 1.414z"/><path d="m30 25.586h2v2.828h-2z" transform="matrix(.707 -.707 .707 .707 -10.012 29.828)"/><path d="m28 20h2c0-.898.311-1.286.781-1.873.543-.678 1.219-1.523 1.219-3.122 0-1.601-.676-2.445-1.219-3.124-.47-.588-.781-.976-.781-1.876s.311-1.288.781-1.876c.543-.679 1.219-1.525 1.219-3.126s-.676-2.447-1.219-3.126c-.47-.588-.781-.977-.781-1.877h-2c0 1.602.676 2.447 1.219 3.126.47.588.781.977.781 1.877s-.311 1.289-.781 1.877c-.543.679-1.219 1.524-1.219 3.125s.676 2.446 1.219 3.125c.47.588.781.976.781 1.875 0 .898-.311 1.286-.781 1.873-.543.678-1.219 1.522-1.219 3.122z"/><path d="m34 20h2c0-.898.311-1.286.781-1.873.543-.678 1.219-1.523 1.219-3.122 0-1.601-.676-2.445-1.219-3.124-.47-.588-.781-.976-.781-1.876s.311-1.288.781-1.876c.543-.679 1.219-1.525 1.219-3.126s-.676-2.447-1.219-3.126c-.47-.588-.781-.977-.781-1.877h-2c0 1.602.676 2.447 1.219 3.126.47.588.781.977.781 1.877s-.311 1.289-.781 1.877c-.543.679-1.219 1.524-1.219 3.125s.676 2.446 1.219 3.125c.47.588.781.976.781 1.875 0 .898-.311 1.286-.781 1.873-.543.678-1.219 1.522-1.219 3.122z"/><path d="m22 10.005c0 1.601.676 2.446 1.219 3.125.47.588.781.976.781 1.875 0 .898-.311 1.286-.781 1.873-.543.678-1.219 1.522-1.219 3.122h2c0-.898.311-1.286.781-1.873.543-.678 1.219-1.523 1.219-3.122 0-1.601-.676-2.445-1.219-3.124-.47-.588-.781-.976-.781-1.876s.311-1.288.781-1.876c.543-.679 1.219-1.525 1.219-3.126s-.676-2.447-1.219-3.126c-.47-.588-.781-.977-.781-1.877h-2c0 1.602.676 2.447 1.219 3.126.47.588.781.977.781 1.877s-.311 1.289-.781 1.877c-.543.679-1.219 1.524-1.219 3.125z"/><path d="m53 24c4.962 0 9-4.038 9-9 0-3.909-2.51-7.235-6-8.475v-2.525c0-1.103-.897-2-2-2h-2v-2h-2v2h-2c-1.103 0-2 .897-2 2v2.525c-3.49 1.24-6 4.565-6 8.475 0 4.962 4.038 9 9 9h1v2.184c-1.161.414-2 1.514-2 2.816v3.92c-.097-.063-.189-.132-.294-.185l-.785-.393c-.155-.077-.287-.194-.384-.339l-1.277-1.915c-.415-.623-1.042-1.065-1.768-1.247l-2.357-.589c-.284-.071-.521-.262-.652-.522l-.178-.356c-.392-.784-1.105-1.355-1.956-1.568l-2.357-.589c-.242-.061-.451-.208-.589-.416l-.978-1.466c-.557-.835-1.49-1.335-2.495-1.335h-1.86c-1.005 0-1.938.5-2.496 1.336l-.978 1.466c-.138.208-.348.355-.589.416l-2.357.589c-.851.213-1.563.784-1.957 1.57l-.176.353c-.131.262-.369.453-.653.523l-2.357.589c-.726.182-1.354.624-1.768 1.247l-1.277 1.915c-.097.145-.229.261-.385.339l-.784.392c-.105.052-.197.122-.294.185v-3.92c0-1.302-.839-2.402-2-2.816v-2.184h1c4.962 0 9-4.038 9-9 0-3.909-2.51-7.235-6-8.475v-2.525c0-1.103-.897-2-2-2h-2v-2h-2v2h-1.999c-1.103 0-2 .897-2 2v2.525c-3.49 1.24-6 4.566-6 8.475 0 4.962 4.038 9 9 9h1v2.184c-1.161.414-2 1.514-2 2.816v6c0 1.309.847 2.412 2.018 2.821-.005.06-.018.118-.018.179v4.229c0 6.723 3.906 12.696 10 15.42v2.351c0 1.103.897 2 2 2h18c1.103 0 2-.897 2-2v-2.35c6.094-2.724 10-8.697 10-15.42v-4.23c0-.061-.013-.119-.018-.179 1.171-.409 2.018-1.512 2.018-2.821v-6c0-1.302-.839-2.402-2-2.816v-2.184zm-42-15.692c1.638 1.473 2.693 3.507 2.941 5.692h-5.882c.248-2.185 1.303-4.219 2.941-5.692zm2.941 7.692c-.248 2.185-1.303 4.219-2.941 5.692-1.638-1.473-2.693-3.507-2.941-5.692zm-.445 5.975c1.385-1.693 2.241-3.78 2.445-5.975h3.979c-.464 3.226-3.13 5.742-6.424 5.975zm6.424-7.975h-3.979c-.204-2.195-1.06-4.282-2.445-5.975 3.294.233 5.96 2.749 6.424 5.975zm-11.92-10h6v2.059c-.329-.037-.662-.059-1-.059h-4c-.338 0-.671.022-1 .059zm.504 4.025c-1.385 1.693-2.241 3.78-2.445 5.975h-3.979c.464-3.226 3.13-5.742 6.424-5.975zm-6.424 7.975h3.979c.204 2.195 1.06 4.282 2.445 5.975-3.294-.233-5.96-2.749-6.424-5.975zm47.92 24h-38v-2h38zm-18 8v-6h8v6zm-2-6v6h-8v-6zm-14.812-7.476.783-.392c.466-.232.866-.585 1.155-1.02l1.277-1.915c.138-.208.348-.355.589-.416l2.357-.589c.851-.213 1.563-.784 1.957-1.57l.176-.353c.131-.262.369-.453.653-.523l2.357-.589c.726-.182 1.354-.624 1.768-1.247l.978-1.466c.186-.277.497-.444.832-.444h1.859c.335 0 .646.167.832.445l.978 1.466c.415.623 1.042 1.065 1.768 1.247l2.357.589c.284.071.521.262.652.522l.178.356c.392.784 1.105 1.355 1.956 1.568l2.357.589c.242.061.451.208.589.416l1.277 1.914c.289.435.689.788 1.154 1.02l.784.392c.239.12.417.325.502.579l.3.897h-8.113l-2.1-2.801c-.564-.751-1.461-1.199-2.4-1.199h-1v2h1c.313 0 .612.149.8.4l1.2 1.6h-22.613l.299-.897c.085-.254.263-.459.502-.579zm-5.188-5.524c0-.551.449-1 1-1s1 .449 1 1v6c0 .551-.449 1-1 1s-1-.449-1-1zm2 13h8v6h-6.842c-.747-1.789-1.158-3.739-1.158-5.771zm10 18v-2h18l.001 2zm18.789-4h-19.578c-3-1.24-5.424-3.363-7.032-6h33.642c-1.608 2.637-4.032 4.76-7.032 6zm8.053-8h-6.842v-6h8v.229c0 2.032-.411 3.982-1.158 5.771zm3.158-13c0 .551-.449 1-1 1s-1-.449-1-1v-6c0-.551.449-1 1-1s1 .449 1 1zm-1-26.692c1.638 1.473 2.693 3.507 2.941 5.692h-5.881c.247-2.185 1.302-4.219 2.94-5.692zm2.941 7.692c-.248 2.185-1.303 4.219-2.941 5.692-1.638-1.473-2.693-3.507-2.941-5.692zm-.445 5.975c1.385-1.693 2.241-3.78 2.445-5.975h3.979c-.464 3.226-3.13 5.742-6.424 5.975zm6.424-7.975h-3.979c-.204-2.195-1.06-4.282-2.445-5.975 3.294.233 5.96 2.749 6.424 5.975zm-11.92-10h6v2.059c-.329-.037-.662-.059-1-.059h-4c-.338 0-.671.022-1 .059zm.504 4.025c-1.385 1.693-2.241 3.78-2.445 5.975h-3.979c.464-3.226 3.13-5.742 6.424-5.975zm-6.424 7.975h3.979c.204 2.195 1.06 4.282 2.445 5.975-3.294-.233-5.96-2.749-6.424-5.975z"/></g></svg>