<?xml version="1.0" standalone="no"?>
<!DOCTYPE svg PUBLIC "-//W3C//DTD SVG 20010904//EN"
 "http://www.w3.org/TR/2001/REC-SVG-20010904/DTD/svg10.dtd">
<svg version="1.0" xmlns="http://www.w3.org/2000/svg"
 width="591.000000pt" height="640.000000pt" viewBox="0 0 591.000000 640.000000"
 preserveAspectRatio="xMidYMid meet">

<g transform="translate(0.000000,640.000000) scale(0.100000,-0.100000)"
fill="#000000" stroke="none">
<path d="M838 5624 l-3 -86 -38 -16 -39 -15 -89 89 -89 89 -57 -58 -58 -57 89
-89 89 -89 -15 -39 -16 -38 -86 -3 -86 -3 0 -79 0 -79 86 -3 86 -3 16 -38 15
-39 -89 -89 -89 -89 58 -57 57 -58 89 89 89 89 39 -15 38 -16 3 -86 3 -86 79
0 79 0 3 86 3 86 38 16 39 15 89 -89 89 -89 57 58 58 57 -89 89 -89 89 15 39
16 38 86 3 86 3 0 79 0 79 -86 3 -86 3 -16 38 -15 39 89 89 89 89 -58 57 -57
58 -89 -89 -89 -89 -39 15 -38 16 -3 86 -3 86 -79 0 -79 0 -3 -86z m152 -254
c102 -52 117 -175 31 -253 -42 -38 -93 -54 -133 -42 -115 35 -163 159 -95 248
50 65 126 83 197 47z"/>
<path d="M2815 5705 c-5 -2 -27 -6 -48 -10 -24 -4 -54 -20 -78 -42 -97 -87
-114 -214 -44 -317 l25 -37 -55 -51 c-88 -80 -89 -84 -93 -306 -2 -106 -1
-204 2 -217 3 -13 22 -33 41 -45 35 -21 35 -23 35 -91 l0 -69 -64 -29 c-140
-63 -296 -198 -372 -322 l-39 -63 -8 79 c-9 92 -26 124 -98 189 l-51 46 21 25
c56 72 63 181 16 260 -56 96 -144 136 -254 115 -30 -5 -55 -10 -57 -10 -2 0
-22 -17 -45 -37 -97 -87 -114 -214 -44 -317 l25 -37 -55 -51 c-88 -80 -89 -84
-93 -306 -2 -106 -1 -204 2 -217 3 -13 22 -33 41 -45 l35 -22 0 -114 0 -114
80 0 80 0 0 120 0 120 80 0 80 0 0 -120 0 -120 80 0 80 0 1 68 1 67 13 -81
c24 -160 48 -216 144 -343 49 -64 109 -131 135 -150 25 -19 46 -36 46 -38 0
-2 -328 -3 -730 -3 l-730 0 0 43 c0 33 -6 49 -23 65 -22 21 -32 22 -215 22
-161 0 -197 -3 -217 -16 l-25 -16 0 -1108 0 -1109 26 -20 c25 -20 40 -21 214
-21 174 0 189 1 214 21 l26 20 0 360 0 359 1920 0 1920 0 0 -359 0 -360 26
-20 c25 -20 40 -21 214 -21 174 0 189 1 214 21 l26 20 0 1109 0 1108 -25 16
c-20 13 -57 16 -218 16 -189 0 -194 0 -215 -23 -15 -16 -22 -36 -22 -65 l0
-42 -741 0 -741 0 49 38 c155 123 262 300 298 497 l13 70 1 -62 1 -63 80 0 80
0 0 120 0 120 80 0 80 0 0 -120 0 -120 80 0 80 0 0 114 0 115 30 17 c48 29 52
54 49 266 -5 221 -7 228 -100 312 l-51 46 21 25 c56 72 63 181 16 260 -56 96
-144 136 -254 115 -30 -5 -55 -10 -57 -10 -2 0 -22 -17 -45 -37 -97 -87 -114
-214 -44 -317 l25 -37 -55 -51 c-73 -67 -86 -95 -93 -196 l-5 -84 -31 59 c-19
36 -66 94 -126 153 -96 96 -182 155 -272 188 l-48 17 0 77 c0 75 1 77 30 94
48 29 52 54 49 266 -5 221 -7 228 -100 312 l-51 46 21 25 c32 42 54 121 47
173 -13 95 -89 182 -176 201 -52 11 -67 12 -85 6z m74 -181 c40 -33 40 -66 2
-105 -33 -33 -50 -35 -90 -14 -58 29 -55 99 4 133 31 18 51 14 84 -14z m82
-403 l29 -29 0 -131 0 -131 -160 0 -160 0 0 134 0 134 31 26 c28 24 38 26 131
26 97 0 100 -1 129 -29z m-1120 -480 c16 -16 29 -36 29 -45 0 -50 -55 -95
-100 -81 -50 16 -76 79 -47 116 35 45 79 49 118 10z m1069 -36 l0 -65 -80 0
-80 0 0 65 0 65 80 0 80 0 0 -65z m1009 39 c19 -16 31 -35 31 -51 0 -30 -50
-83 -78 -83 -33 0 -82 48 -82 80 0 32 48 80 80 80 10 0 32 -12 49 -26z m-1008
-254 l28 0 -15 -52 c-9 -29 -19 -56 -23 -60 -4 -4 -42 18 -86 50 -78 57 -79
57 -49 64 16 4 49 5 73 2 24 -2 56 -4 72 -4z m215 -64 c19 -14 18 -16 -10
-100 -16 -47 -32 -86 -36 -86 -4 0 -18 8 -31 19 l-23 19 18 58 c36 114 41 120
82 90z m-333 -163 c126 -91 231 -172 234 -179 9 -24 -6 -66 -22 -60 -18 7
-459 327 -515 373 -9 8 33 33 54 33 12 0 124 -75 249 -167z m-872 78 l29 -29
0 -131 0 -131 -160 0 -160 0 0 134 0 134 31 26 c28 24 38 26 131 26 97 0 100
-1 129 -29z m2080 0 l29 -29 0 -131 0 -131 -160 0 -160 0 0 134 0 134 31 26
c28 24 38 26 131 26 97 0 100 -1 129 -29z m-765 -364 l-92 -282 -37 -3 c-20
-2 -37 1 -37 5 0 5 46 148 101 318 l101 310 28 -33 27 -33 -91 -282z m-789
266 l65 -46 -23 -18 c-34 -27 -44 -24 -116 27 l-65 46 23 24 c27 29 31 28 116
-33z m-170 -149 c18 -14 33 -29 33 -35 0 -11 -121 -101 -127 -95 -6 5 24 112
38 139 13 22 16 22 56 -9z m394 -13 c29 -23 36 -15 -115 -125 -107 -78 -352
-226 -374 -226 -11 0 -35 68 -27 80 3 5 11 10 17 10 34 0 211 100 323 183 72
53 135 96 141 97 7 0 22 -9 35 -19z m798 -138 c1 -32 0 -33 -42 -33 -24 0 -46
3 -49 6 -6 6 33 132 49 156 9 16 42 -83 42 -129z m-569 -29 c36 -26 66 -48 67
-49 1 0 -10 -38 -24 -83 l-27 -82 -92 0 -92 0 -27 81 c-15 44 -25 82 -22 85
24 25 125 94 137 94 9 0 45 -21 80 -46z m-250 -443 c50 -151 88 -276 86 -279
-3 -2 -20 -2 -39 2 l-33 6 -86 263 -86 262 27 22 c18 15 28 18 34 10 4 -7 48
-135 97 -286z m815 259 l0 -35 -82 -3 c-46 -2 -83 0 -83 4 0 4 5 23 12 41 l12
34 71 -3 70 -3 0 -35z m-1086 -131 c6 -18 11 -33 11 -34 0 -1 -27 -21 -60 -44
l-59 -42 -16 32 c-9 17 -14 33 -12 35 15 15 112 84 118 84 4 0 12 -14 18 -31z
m1016 -61 c4 -3 -1 -20 -10 -37 l-16 -31 -280 0 -280 0 -15 35 c-7 19 -14 37
-14 41 0 8 606 1 615 -8z m-946 -155 c22 -55 30 -93 19 -93 -6 0 -31 17 -56
37 l-45 37 29 23 c37 29 39 29 53 -4z m500 -115 c16 -54 17 -64 5 -71 -33 -19
-57 -3 -75 48 -27 76 -25 85 16 85 33 0 35 -2 54 -62z m281 57 c0 -10 -111
-76 -119 -71 -16 11 -23 59 -9 67 14 9 128 12 128 4z m-2480 -1165 l0 -1010
-80 0 -80 0 0 1010 0 1010 80 0 80 0 0 -1010z m4320 0 l0 -1010 -80 0 -80 0 0
1010 0 1010 80 0 80 0 0 -1010z m-3760 730 l0 -140 -200 0 -200 0 0 140 0 140
200 0 200 0 0 -140z m480 0 l0 -140 -160 0 -160 0 0 140 0 140 160 0 160 0 0
-140z m480 0 l0 -140 -160 0 -160 0 0 140 0 140 160 0 160 0 0 -140z m480 0
l0 -140 -160 0 -160 0 0 140 0 140 160 0 160 0 0 -140z m480 0 l0 -140 -160 0
-160 0 0 140 0 140 160 0 160 0 0 -140z m480 0 l0 -140 -160 0 -160 0 0 140 0
140 160 0 160 0 0 -140z m480 0 l0 -140 -160 0 -160 0 0 140 0 140 160 0 160
0 0 -140z m560 0 l0 -140 -200 0 -200 0 0 140 0 140 200 0 200 0 0 -140z
m-3440 -420 l0 -140 -200 0 -200 0 0 140 0 140 200 0 200 0 0 -140z m480 0 l0
-140 -160 0 -160 0 0 140 0 140 160 0 160 0 0 -140z m480 0 l0 -140 -160 0
-160 0 0 140 0 140 160 0 160 0 0 -140z m480 0 l0 -140 -160 0 -160 0 0 140 0
140 160 0 160 0 0 -140z m480 0 l0 -140 -160 0 -160 0 0 140 0 140 160 0 160
0 0 -140z m480 0 l0 -140 -160 0 -160 0 0 140 0 140 160 0 160 0 0 -140z m480
0 l0 -140 -160 0 -160 0 0 140 0 140 160 0 160 0 0 -140z m560 0 l0 -140 -200
0 -200 0 0 140 0 140 200 0 200 0 0 -140z m-3440 -420 l0 -140 -200 0 -200 0
0 140 0 140 200 0 200 0 0 -140z m480 0 l0 -140 -160 0 -160 0 0 140 0 140
160 0 160 0 0 -140z m480 0 l0 -140 -160 0 -160 0 0 140 0 140 160 0 160 0 0
-140z m480 0 l0 -140 -160 0 -160 0 0 140 0 140 160 0 160 0 0 -140z m480 0
l0 -140 -160 0 -160 0 0 140 0 140 160 0 160 0 0 -140z m480 0 l0 -140 -160 0
-160 0 0 140 0 140 160 0 160 0 0 -140z m480 0 l0 -140 -160 0 -160 0 0 140 0
140 160 0 160 0 0 -140z m560 0 l0 -140 -200 0 -200 0 0 140 0 140 200 0 200
0 0 -140z"/>
<path d="M4678 5624 l-3 -86 -38 -16 -39 -15 -89 89 -89 89 -57 -58 -58 -57
89 -89 89 -89 -15 -39 -16 -38 -86 -3 -86 -3 0 -79 0 -79 86 -3 86 -3 16 -38
15 -39 -89 -89 -89 -89 58 -57 57 -58 89 89 89 89 39 -15 38 -16 3 -86 3 -86
79 0 79 0 3 86 3 86 38 16 39 15 89 -89 89 -89 57 58 58 57 -89 89 -89 89 15
39 16 38 86 3 86 3 0 79 0 79 -86 3 -86 3 -16 38 -15 39 89 89 89 89 -58 57
-57 58 -89 -89 -89 -89 -39 15 -38 16 -3 86 -3 86 -79 0 -79 0 -3 -86z m152
-256 c48 -25 90 -89 90 -138 0 -14 -10 -46 -22 -70 -48 -93 -173 -117 -244
-46 -87 87 -60 222 51 261 55 20 74 18 125 -7z"/>
</g>
</svg>
